<?xml version="1.0" encoding="utf-8" standalone="no"?>
<!DOCTYPE svg PUBLIC "-//W3C//DTD SVG 1.1//EN"
  "http://www.w3.org/Graphics/SVG/1.1/DTD/svg11.dtd">
<!-- Created with matplotlib (https://matplotlib.org/) -->
<svg height="360pt" version="1.1" viewBox="0 0 360 360" width="360pt" xmlns="http://www.w3.org/2000/svg" xmlns:xlink="http://www.w3.org/1999/xlink">
 <metadata>
  <rdf:RDF xmlns:cc="http://creativecommons.org/ns#" xmlns:dc="http://purl.org/dc/elements/1.1/" xmlns:rdf="http://www.w3.org/1999/02/22-rdf-syntax-ns#">
   <cc:Work>
    <dc:type rdf:resource="http://purl.org/dc/dcmitype/StillImage"/>
    <dc:date>2021-09-12T21:06:41.992728</dc:date>
    <dc:format>image/svg+xml</dc:format>
    <dc:creator>
     <cc:Agent>
      <dc:title>Matplotlib v3.3.4, https://matplotlib.org/</dc:title>
     </cc:Agent>
    </dc:creator>
   </cc:Work>
  </rdf:RDF>
 </metadata>
 <defs>
  <style type="text/css">*{stroke-linecap:butt;stroke-linejoin:round;}</style>
 </defs>
 <g id="figure_1">
  <g id="patch_1">
   <path d="M 0 360 
L 360 360 
L 360 0 
L 0 0 
z
" style="fill:none;"/>
  </g>
  <g id="axes_1">
   <g id="patch_2">
    <path d="M 40.175 332.2 
L 349.2 332.2 
L 349.2 21.8 
L 40.175 21.8 
z
" style="fill:#ffffff;"/>
   </g>
   <g id="PathCollection_1">
    <defs>
     <path d="M 0 3 
C 0.795609 3 1.55874 2.683901 2.12132 2.12132 
C 2.683901 1.55874 3 0.795609 3 0 
C 3 -0.795609 2.683901 -1.55874 2.12132 -2.12132 
C 1.55874 -2.683901 0.795609 -3 0 -3 
C -0.795609 -3 -1.55874 -2.683901 -2.12132 -2.12132 
C -2.683901 -1.55874 -3 -0.795609 -3 0 
C -3 0.795609 -2.683901 1.55874 -2.12132 2.12132 
C -1.55874 2.683901 -0.795609 3 0 3 
z
" id="md492a60f85" style="stroke:#1f77b4;stroke-opacity:0.8;"/>
    </defs>
    <g clip-path="url(#pb60c02726e)">
     <use style="fill:#1f77b4;fill-opacity:0.8;stroke:#1f77b4;stroke-opacity:0.8;" x="40.175" xlink:href="#md492a60f85" y="301.040994"/>
     <use style="fill:#1f77b4;fill-opacity:0.8;stroke:#1f77b4;stroke-opacity:0.8;" x="40.186072" xlink:href="#md492a60f85" y="301.040994"/>
     <use style="fill:#1f77b4;fill-opacity:0.8;stroke:#1f77b4;stroke-opacity:0.8;" x="42.307322" xlink:href="#md492a60f85" y="300.647624"/>
     <use style="fill:#1f77b4;fill-opacity:0.8;stroke:#1f77b4;stroke-opacity:0.8;" x="42.304156" xlink:href="#md492a60f85" y="300.647624"/>
     <use style="fill:#1f77b4;fill-opacity:0.8;stroke:#1f77b4;stroke-opacity:0.8;" x="42.297503" xlink:href="#md492a60f85" y="300.647624"/>
     <use style="fill:#1f77b4;fill-opacity:0.8;stroke:#1f77b4;stroke-opacity:0.8;" x="42.291458" xlink:href="#md492a60f85" y="300.647624"/>
     <use style="fill:#1f77b4;fill-opacity:0.8;stroke:#1f77b4;stroke-opacity:0.8;" x="42.293152" xlink:href="#md492a60f85" y="300.647624"/>
     <use style="fill:#1f77b4;fill-opacity:0.8;stroke:#1f77b4;stroke-opacity:0.8;" x="48.910515" xlink:href="#md492a60f85" y="299.825121"/>
     <use style="fill:#1f77b4;fill-opacity:0.8;stroke:#1f77b4;stroke-opacity:0.8;" x="48.959392" xlink:href="#md492a60f85" y="299.825121"/>
     <use style="fill:#1f77b4;fill-opacity:0.8;stroke:#1f77b4;stroke-opacity:0.8;" x="49.00446" xlink:href="#md492a60f85" y="299.825121"/>
     <use style="fill:#1f77b4;fill-opacity:0.8;stroke:#1f77b4;stroke-opacity:0.8;" x="49.002293" xlink:href="#md492a60f85" y="299.825121"/>
     <use style="fill:#1f77b4;fill-opacity:0.8;stroke:#1f77b4;stroke-opacity:0.8;" x="48.981723" xlink:href="#md492a60f85" y="299.825121"/>
     <use style="fill:#1f77b4;fill-opacity:0.8;stroke:#1f77b4;stroke-opacity:0.8;" x="58.359857" xlink:href="#md492a60f85" y="298.108594"/>
     <use style="fill:#1f77b4;fill-opacity:0.8;stroke:#1f77b4;stroke-opacity:0.8;" x="58.067472" xlink:href="#md492a60f85" y="298.108594"/>
     <use style="fill:#1f77b4;fill-opacity:0.8;stroke:#1f77b4;stroke-opacity:0.8;" x="57.856015" xlink:href="#md492a60f85" y="298.108594"/>
     <use style="fill:#1f77b4;fill-opacity:0.8;stroke:#1f77b4;stroke-opacity:0.8;" x="58.118602" xlink:href="#md492a60f85" y="298.108594"/>
     <use style="fill:#1f77b4;fill-opacity:0.8;stroke:#1f77b4;stroke-opacity:0.8;" x="58.677805" xlink:href="#md492a60f85" y="298.108594"/>
     <use style="fill:#1f77b4;fill-opacity:0.8;stroke:#1f77b4;stroke-opacity:0.8;" x="67.440527" xlink:href="#md492a60f85" y="294.532496"/>
     <use style="fill:#1f77b4;fill-opacity:0.8;stroke:#1f77b4;stroke-opacity:0.8;" x="70.035415" xlink:href="#md492a60f85" y="294.532496"/>
     <use style="fill:#1f77b4;fill-opacity:0.8;stroke:#1f77b4;stroke-opacity:0.8;" x="67.409883" xlink:href="#md492a60f85" y="294.532496"/>
     <use style="fill:#1f77b4;fill-opacity:0.8;stroke:#1f77b4;stroke-opacity:0.8;" x="67.143741" xlink:href="#md492a60f85" y="294.532496"/>
     <use style="fill:#1f77b4;fill-opacity:0.8;stroke:#1f77b4;stroke-opacity:0.8;" x="67.244137" xlink:href="#md492a60f85" y="294.532496"/>
     <use style="fill:#1f77b4;fill-opacity:0.8;stroke:#1f77b4;stroke-opacity:0.8;" x="83.396881" xlink:href="#md492a60f85" y="287.094212"/>
     <use style="fill:#1f77b4;fill-opacity:0.8;stroke:#1f77b4;stroke-opacity:0.8;" x="85.008465" xlink:href="#md492a60f85" y="287.094212"/>
     <use style="fill:#1f77b4;fill-opacity:0.8;stroke:#1f77b4;stroke-opacity:0.8;" x="84.273695" xlink:href="#md492a60f85" y="287.094212"/>
     <use style="fill:#1f77b4;fill-opacity:0.8;stroke:#1f77b4;stroke-opacity:0.8;" x="83.380967" xlink:href="#md492a60f85" y="287.094212"/>
     <use style="fill:#1f77b4;fill-opacity:0.8;stroke:#1f77b4;stroke-opacity:0.8;" x="85.278671" xlink:href="#md492a60f85" y="287.094212"/>
     <use style="fill:#1f77b4;fill-opacity:0.8;stroke:#1f77b4;stroke-opacity:0.8;" x="108.062966" xlink:href="#md492a60f85" y="271.645469"/>
     <use style="fill:#1f77b4;fill-opacity:0.8;stroke:#1f77b4;stroke-opacity:0.8;" x="108.123068" xlink:href="#md492a60f85" y="271.645469"/>
     <use style="fill:#1f77b4;fill-opacity:0.8;stroke:#1f77b4;stroke-opacity:0.8;" x="108.145585" xlink:href="#md492a60f85" y="271.645469"/>
     <use style="fill:#1f77b4;fill-opacity:0.8;stroke:#1f77b4;stroke-opacity:0.8;" x="108.172673" xlink:href="#md492a60f85" y="271.645469"/>
     <use style="fill:#1f77b4;fill-opacity:0.8;stroke:#1f77b4;stroke-opacity:0.8;" x="108.004218" xlink:href="#md492a60f85" y="271.645469"/>
     <use style="fill:#1f77b4;fill-opacity:0.8;stroke:#1f77b4;stroke-opacity:0.8;" x="152.565462" xlink:href="#md492a60f85" y="239.603631"/>
     <use style="fill:#1f77b4;fill-opacity:0.8;stroke:#1f77b4;stroke-opacity:0.8;" x="152.719019" xlink:href="#md492a60f85" y="239.603631"/>
     <use style="fill:#1f77b4;fill-opacity:0.8;stroke:#1f77b4;stroke-opacity:0.8;" x="152.472008" xlink:href="#md492a60f85" y="239.603631"/>
     <use style="fill:#1f77b4;fill-opacity:0.8;stroke:#1f77b4;stroke-opacity:0.8;" x="152.473024" xlink:href="#md492a60f85" y="239.603631"/>
     <use style="fill:#1f77b4;fill-opacity:0.8;stroke:#1f77b4;stroke-opacity:0.8;" x="153.114" xlink:href="#md492a60f85" y="239.603631"/>
     <use style="fill:#1f77b4;fill-opacity:0.8;stroke:#1f77b4;stroke-opacity:0.8;" x="224.912177" xlink:href="#md492a60f85" y="173.231253"/>
     <use style="fill:#1f77b4;fill-opacity:0.8;stroke:#1f77b4;stroke-opacity:0.8;" x="225.30665" xlink:href="#md492a60f85" y="173.231253"/>
     <use style="fill:#1f77b4;fill-opacity:0.8;stroke:#1f77b4;stroke-opacity:0.8;" x="225.724825" xlink:href="#md492a60f85" y="173.231253"/>
     <use style="fill:#1f77b4;fill-opacity:0.8;stroke:#1f77b4;stroke-opacity:0.8;" x="225.692658" xlink:href="#md492a60f85" y="173.231253"/>
     <use style="fill:#1f77b4;fill-opacity:0.8;stroke:#1f77b4;stroke-opacity:0.8;" x="225.172901" xlink:href="#md492a60f85" y="173.231253"/>
     <use style="fill:#1f77b4;fill-opacity:0.8;stroke:#1f77b4;stroke-opacity:0.8;" x="349.2" xlink:href="#md492a60f85" y="35.909091"/>
    </g>
   </g>
   <g id="PolyCollection_1">
    <path clip-path="url(#pb60c02726e)" d="M 40.175 308.337604 
L 40.175 318.090909 
L 43.296465 315.543945 
L 46.417929 312.956522 
L 49.539394 310.337851 
L 52.660859 307.722261 
L 55.782323 305.192866 
L 58.903788 302.683714 
L 62.025253 300.166003 
L 65.146717 297.668335 
L 68.268182 295.129229 
L 71.389646 292.61083 
L 74.511111 290.069917 
L 77.632576 287.586449 
L 80.75404 285.219159 
L 83.875505 282.785826 
L 86.99697 280.376253 
L 90.118434 278.049908 
L 93.239899 275.653166 
L 96.361364 273.450375 
L 99.482828 271.247398 
L 102.604293 268.996799 
L 105.725758 266.863462 
L 108.847222 264.715426 
L 111.968687 262.667398 
L 115.090152 260.608349 
L 118.211616 258.557079 
L 121.333081 256.489794 
L 124.454545 254.353469 
L 127.57601 252.218218 
L 130.697475 250.200326 
L 133.818939 248.145581 
L 136.940404 246.045389 
L 140.061869 243.980969 
L 143.183333 241.907685 
L 146.304798 239.850762 
L 149.426263 237.79384 
L 152.547727 235.736918 
L 155.669192 233.679996 
L 158.790657 231.623073 
L 161.912121 229.566151 
L 165.033586 227.509229 
L 168.155051 225.452307 
L 171.276515 223.395384 
L 174.39798 221.338462 
L 177.519444 219.304844 
L 180.640909 217.249836 
L 183.762374 215.194828 
L 186.883838 213.139821 
L 190.005303 211.084813 
L 193.126768 209.029806 
L 196.248232 206.974798 
L 199.369697 204.919791 
L 202.491162 202.864783 
L 205.612626 200.809776 
L 208.734091 198.7537 
L 211.855556 196.697494 
L 214.97702 194.641289 
L 218.098485 192.586882 
L 221.219949 190.542685 
L 224.341414 188.498489 
L 227.462879 186.454293 
L 230.584343 184.410097 
L 233.705808 182.365901 
L 236.827273 180.321704 
L 239.948737 178.277508 
L 243.070202 176.233312 
L 246.191667 174.189116 
L 249.313131 172.14492 
L 252.434596 170.100723 
L 255.556061 168.056527 
L 258.677525 166.012331 
L 261.79899 163.968135 
L 264.920455 161.923939 
L 268.041919 159.879742 
L 271.163384 157.835546 
L 274.284848 155.79135 
L 277.406313 153.747154 
L 280.527778 151.702958 
L 283.649242 149.658761 
L 286.770707 147.614565 
L 289.892172 145.570369 
L 293.013636 143.526173 
L 296.135101 141.481977 
L 299.256566 139.43778 
L 302.37803 137.393584 
L 305.499495 135.349388 
L 308.62096 133.305192 
L 311.742424 131.260996 
L 314.863889 129.2168 
L 317.985354 127.172603 
L 321.106818 125.129603 
L 324.228283 123.087861 
L 327.349747 121.04612 
L 330.471212 119.004378 
L 333.592677 116.962637 
L 336.714141 114.920896 
L 339.835606 112.879154 
L 342.957071 110.837413 
L 346.078535 108.795671 
L 349.2 106.75393 
L 349.2 58.392812 
L 349.2 58.392812 
L 346.078535 61.006544 
L 342.957071 63.620275 
L 339.835606 66.234006 
L 336.714141 68.847738 
L 333.592677 71.461469 
L 330.471212 74.0752 
L 327.349747 76.662717 
L 324.228283 79.235482 
L 321.106818 81.808247 
L 317.985354 84.382102 
L 314.863889 86.998446 
L 311.742424 89.618093 
L 308.62096 92.23774 
L 305.499495 94.857387 
L 302.37803 97.463754 
L 299.256566 100.045978 
L 296.135101 102.628201 
L 293.013636 105.210424 
L 289.892172 107.792647 
L 286.770707 110.391 
L 283.649242 112.99145 
L 280.527778 115.5919 
L 277.406313 118.19235 
L 274.284848 120.7928 
L 271.163384 123.393324 
L 268.041919 125.988113 
L 264.920455 128.539164 
L 261.79899 131.14801 
L 258.677525 133.798534 
L 255.556061 136.399836 
L 252.434596 139.001139 
L 249.313131 141.602441 
L 246.191667 144.212707 
L 243.070202 146.828184 
L 239.948737 149.409242 
L 236.827273 152.005423 
L 233.705808 154.605379 
L 230.584343 157.205336 
L 227.462879 159.805293 
L 224.341414 162.40638 
L 221.219949 165.007834 
L 218.098485 167.609289 
L 214.97702 170.198065 
L 211.855556 172.768127 
L 208.734091 175.373338 
L 205.612626 177.994499 
L 202.491162 180.614623 
L 199.369697 183.215822 
L 196.248232 185.817022 
L 193.126768 188.404637 
L 190.005303 190.987066 
L 186.883838 193.597912 
L 183.762374 196.20981 
L 180.640909 198.821708 
L 177.519444 201.396721 
L 174.39798 204.012497 
L 171.276515 206.619914 
L 168.155051 209.199858 
L 165.033586 211.762362 
L 161.912121 214.296478 
L 158.790657 216.869307 
L 155.669192 219.39664 
L 152.547727 221.913836 
L 149.426263 224.53445 
L 146.304798 227.116164 
L 143.183333 229.716178 
L 140.061869 232.25188 
L 136.940404 234.865673 
L 133.818939 237.38734 
L 130.697475 239.932663 
L 127.57601 242.492533 
L 124.454545 245.05405 
L 121.333081 247.665981 
L 118.211616 250.301179 
L 115.090152 252.84392 
L 111.968687 255.396702 
L 108.847222 257.974351 
L 105.725758 260.510435 
L 102.604293 262.975276 
L 99.482828 265.420397 
L 96.361364 267.927061 
L 93.239899 270.434409 
L 90.118434 272.916584 
L 86.99697 275.275368 
L 83.875505 277.692498 
L 80.75404 280.127624 
L 77.632576 282.488208 
L 74.511111 284.771573 
L 71.389646 287.03898 
L 68.268182 289.203199 
L 65.146717 291.418574 
L 62.025253 293.585186 
L 58.903788 295.693858 
L 55.782323 297.830809 
L 52.660859 299.938573 
L 49.539394 302.060487 
L 46.417929 304.156505 
L 43.296465 306.262783 
L 40.175 308.337604 
z
" style="fill:#1f77b4;fill-opacity:0.15;"/>
   </g>
   <g id="matplotlib.axis_1">
    <g id="xtick_1">
     <g id="line2d_1">
      <defs>
       <path d="M 0 0 
L 0 3.5 
" id="m09e75308b2" style="stroke:#000000;stroke-width:0.8;"/>
      </defs>
      <g>
       <use style="stroke:#000000;stroke-width:0.8;" x="79.305873" xlink:href="#m09e75308b2" y="332.2"/>
      </g>
     </g>
     <g id="text_1">
      <!-- 250 -->
      <g transform="translate(69.762123 346.798438)scale(0.1 -0.1)">
       <defs>
        <path d="M 19.1875 8.296875 
L 53.609375 8.296875 
L 53.609375 0 
L 7.328125 0 
L 7.328125 8.296875 
Q 12.9375 14.109375 22.625 23.890625 
Q 32.328125 33.6875 34.8125 36.53125 
Q 39.546875 41.84375 41.421875 45.53125 
Q 43.3125 49.21875 43.3125 52.78125 
Q 43.3125 58.59375 39.234375 62.25 
Q 35.15625 65.921875 28.609375 65.921875 
Q 23.96875 65.921875 18.8125 64.3125 
Q 13.671875 62.703125 7.8125 59.421875 
L 7.8125 69.390625 
Q 13.765625 71.78125 18.9375 73 
Q 24.125 74.21875 28.421875 74.21875 
Q 39.75 74.21875 46.484375 68.546875 
Q 53.21875 62.890625 53.21875 53.421875 
Q 53.21875 48.921875 51.53125 44.890625 
Q 49.859375 40.875 45.40625 35.40625 
Q 44.1875 33.984375 37.640625 27.21875 
Q 31.109375 20.453125 19.1875 8.296875 
z
" id="DejaVuSans-50"/>
        <path d="M 10.796875 72.90625 
L 49.515625 72.90625 
L 49.515625 64.59375 
L 19.828125 64.59375 
L 19.828125 46.734375 
Q 21.96875 47.46875 24.109375 47.828125 
Q 26.265625 48.1875 28.421875 48.1875 
Q 40.625 48.1875 47.75 41.5 
Q 54.890625 34.8125 54.890625 23.390625 
Q 54.890625 11.625 47.5625 5.09375 
Q 40.234375 -1.421875 26.90625 -1.421875 
Q 22.3125 -1.421875 17.546875 -0.640625 
Q 12.796875 0.140625 7.71875 1.703125 
L 7.71875 11.625 
Q 12.109375 9.234375 16.796875 8.0625 
Q 21.484375 6.890625 26.703125 6.890625 
Q 35.15625 6.890625 40.078125 11.328125 
Q 45.015625 15.765625 45.015625 23.390625 
Q 45.015625 31 40.078125 35.4375 
Q 35.15625 39.890625 26.703125 39.890625 
Q 22.75 39.890625 18.8125 39.015625 
Q 14.890625 38.140625 10.796875 36.28125 
z
" id="DejaVuSans-53"/>
        <path d="M 31.78125 66.40625 
Q 24.171875 66.40625 20.328125 58.90625 
Q 16.5 51.421875 16.5 36.375 
Q 16.5 21.390625 20.328125 13.890625 
Q 24.171875 6.390625 31.78125 6.390625 
Q 39.453125 6.390625 43.28125 13.890625 
Q 47.125 21.390625 47.125 36.375 
Q 47.125 51.421875 43.28125 58.90625 
Q 39.453125 66.40625 31.78125 66.40625 
z
M 31.78125 74.21875 
Q 44.046875 74.21875 50.515625 64.515625 
Q 56.984375 54.828125 56.984375 36.375 
Q 56.984375 17.96875 50.515625 8.265625 
Q 44.046875 -1.421875 31.78125 -1.421875 
Q 19.53125 -1.421875 13.0625 8.265625 
Q 6.59375 17.96875 6.59375 36.375 
Q 6.59375 54.828125 13.0625 64.515625 
Q 19.53125 74.21875 31.78125 74.21875 
z
" id="DejaVuSans-48"/>
       </defs>
       <use xlink:href="#DejaVuSans-50"/>
       <use x="63.623047" xlink:href="#DejaVuSans-53"/>
       <use x="127.246094" xlink:href="#DejaVuSans-48"/>
      </g>
     </g>
    </g>
    <g id="xtick_2">
     <g id="line2d_2">
      <g>
       <use style="stroke:#000000;stroke-width:0.8;" x="121.631318" xlink:href="#m09e75308b2" y="332.2"/>
      </g>
     </g>
     <g id="text_2">
      <!-- 500 -->
      <g transform="translate(112.087568 346.798438)scale(0.1 -0.1)">
       <use xlink:href="#DejaVuSans-53"/>
       <use x="63.623047" xlink:href="#DejaVuSans-48"/>
       <use x="127.246094" xlink:href="#DejaVuSans-48"/>
      </g>
     </g>
    </g>
    <g id="xtick_3">
     <g id="line2d_3">
      <g>
       <use style="stroke:#000000;stroke-width:0.8;" x="163.956763" xlink:href="#m09e75308b2" y="332.2"/>
      </g>
     </g>
     <g id="text_3">
      <!-- 750 -->
      <g transform="translate(154.413013 346.798438)scale(0.1 -0.1)">
       <defs>
        <path d="M 8.203125 72.90625 
L 55.078125 72.90625 
L 55.078125 68.703125 
L 28.609375 0 
L 18.3125 0 
L 43.21875 64.59375 
L 8.203125 64.59375 
z
" id="DejaVuSans-55"/>
       </defs>
       <use xlink:href="#DejaVuSans-55"/>
       <use x="63.623047" xlink:href="#DejaVuSans-53"/>
       <use x="127.246094" xlink:href="#DejaVuSans-48"/>
      </g>
     </g>
    </g>
    <g id="xtick_4">
     <g id="line2d_4">
      <g>
       <use style="stroke:#000000;stroke-width:0.8;" x="206.282209" xlink:href="#m09e75308b2" y="332.2"/>
      </g>
     </g>
     <g id="text_4">
      <!-- 1000 -->
      <g transform="translate(193.557209 346.798438)scale(0.1 -0.1)">
       <defs>
        <path d="M 12.40625 8.296875 
L 28.515625 8.296875 
L 28.515625 63.921875 
L 10.984375 60.40625 
L 10.984375 69.390625 
L 28.421875 72.90625 
L 38.28125 72.90625 
L 38.28125 8.296875 
L 54.390625 8.296875 
L 54.390625 0 
L 12.40625 0 
z
" id="DejaVuSans-49"/>
       </defs>
       <use xlink:href="#DejaVuSans-49"/>
       <use x="63.623047" xlink:href="#DejaVuSans-48"/>
       <use x="127.246094" xlink:href="#DejaVuSans-48"/>
       <use x="190.869141" xlink:href="#DejaVuSans-48"/>
      </g>
     </g>
    </g>
    <g id="xtick_5">
     <g id="line2d_5">
      <g>
       <use style="stroke:#000000;stroke-width:0.8;" x="248.607654" xlink:href="#m09e75308b2" y="332.2"/>
      </g>
     </g>
     <g id="text_5">
      <!-- 1250 -->
      <g transform="translate(235.882654 346.798438)scale(0.1 -0.1)">
       <use xlink:href="#DejaVuSans-49"/>
       <use x="63.623047" xlink:href="#DejaVuSans-50"/>
       <use x="127.246094" xlink:href="#DejaVuSans-53"/>
       <use x="190.869141" xlink:href="#DejaVuSans-48"/>
      </g>
     </g>
    </g>
    <g id="xtick_6">
     <g id="line2d_6">
      <g>
       <use style="stroke:#000000;stroke-width:0.8;" x="290.933099" xlink:href="#m09e75308b2" y="332.2"/>
      </g>
     </g>
     <g id="text_6">
      <!-- 1500 -->
      <g transform="translate(278.208099 346.798438)scale(0.1 -0.1)">
       <use xlink:href="#DejaVuSans-49"/>
       <use x="63.623047" xlink:href="#DejaVuSans-53"/>
       <use x="127.246094" xlink:href="#DejaVuSans-48"/>
       <use x="190.869141" xlink:href="#DejaVuSans-48"/>
      </g>
     </g>
    </g>
    <g id="xtick_7">
     <g id="line2d_7">
      <g>
       <use style="stroke:#000000;stroke-width:0.8;" x="333.258544" xlink:href="#m09e75308b2" y="332.2"/>
      </g>
     </g>
     <g id="text_7">
      <!-- 1750 -->
      <g transform="translate(320.533544 346.798438)scale(0.1 -0.1)">
       <use xlink:href="#DejaVuSans-49"/>
       <use x="63.623047" xlink:href="#DejaVuSans-55"/>
       <use x="127.246094" xlink:href="#DejaVuSans-53"/>
       <use x="190.869141" xlink:href="#DejaVuSans-48"/>
      </g>
     </g>
    </g>
    <g id="text_8">
     <!-- tiempo -->
     <g transform="translate(177.157812 360.476562)scale(0.1 -0.1)">
      <defs>
       <path d="M 18.3125 70.21875 
L 18.3125 54.6875 
L 36.8125 54.6875 
L 36.8125 47.703125 
L 18.3125 47.703125 
L 18.3125 18.015625 
Q 18.3125 11.328125 20.140625 9.421875 
Q 21.96875 7.515625 27.59375 7.515625 
L 36.8125 7.515625 
L 36.8125 0 
L 27.59375 0 
Q 17.1875 0 13.234375 3.875 
Q 9.28125 7.765625 9.28125 18.015625 
L 9.28125 47.703125 
L 2.6875 47.703125 
L 2.6875 54.6875 
L 9.28125 54.6875 
L 9.28125 70.21875 
z
" id="DejaVuSans-116"/>
       <path d="M 9.421875 54.6875 
L 18.40625 54.6875 
L 18.40625 0 
L 9.421875 0 
z
M 9.421875 75.984375 
L 18.40625 75.984375 
L 18.40625 64.59375 
L 9.421875 64.59375 
z
" id="DejaVuSans-105"/>
       <path d="M 56.203125 29.59375 
L 56.203125 25.203125 
L 14.890625 25.203125 
Q 15.484375 15.921875 20.484375 11.0625 
Q 25.484375 6.203125 34.421875 6.203125 
Q 39.59375 6.203125 44.453125 7.46875 
Q 49.3125 8.734375 54.109375 11.28125 
L 54.109375 2.78125 
Q 49.265625 0.734375 44.1875 -0.34375 
Q 39.109375 -1.421875 33.890625 -1.421875 
Q 20.796875 -1.421875 13.15625 6.1875 
Q 5.515625 13.8125 5.515625 26.8125 
Q 5.515625 40.234375 12.765625 48.109375 
Q 20.015625 56 32.328125 56 
Q 43.359375 56 49.78125 48.890625 
Q 56.203125 41.796875 56.203125 29.59375 
z
M 47.21875 32.234375 
Q 47.125 39.59375 43.09375 43.984375 
Q 39.0625 48.390625 32.421875 48.390625 
Q 24.90625 48.390625 20.390625 44.140625 
Q 15.875 39.890625 15.1875 32.171875 
z
" id="DejaVuSans-101"/>
       <path d="M 52 44.1875 
Q 55.375 50.25 60.0625 53.125 
Q 64.75 56 71.09375 56 
Q 79.640625 56 84.28125 50.015625 
Q 88.921875 44.046875 88.921875 33.015625 
L 88.921875 0 
L 79.890625 0 
L 79.890625 32.71875 
Q 79.890625 40.578125 77.09375 44.375 
Q 74.3125 48.1875 68.609375 48.1875 
Q 61.625 48.1875 57.5625 43.546875 
Q 53.515625 38.921875 53.515625 30.90625 
L 53.515625 0 
L 44.484375 0 
L 44.484375 32.71875 
Q 44.484375 40.625 41.703125 44.40625 
Q 38.921875 48.1875 33.109375 48.1875 
Q 26.21875 48.1875 22.15625 43.53125 
Q 18.109375 38.875 18.109375 30.90625 
L 18.109375 0 
L 9.078125 0 
L 9.078125 54.6875 
L 18.109375 54.6875 
L 18.109375 46.1875 
Q 21.1875 51.21875 25.484375 53.609375 
Q 29.78125 56 35.6875 56 
Q 41.65625 56 45.828125 52.96875 
Q 50 49.953125 52 44.1875 
z
" id="DejaVuSans-109"/>
       <path d="M 18.109375 8.203125 
L 18.109375 -20.796875 
L 9.078125 -20.796875 
L 9.078125 54.6875 
L 18.109375 54.6875 
L 18.109375 46.390625 
Q 20.953125 51.265625 25.265625 53.625 
Q 29.59375 56 35.59375 56 
Q 45.5625 56 51.78125 48.09375 
Q 58.015625 40.1875 58.015625 27.296875 
Q 58.015625 14.40625 51.78125 6.484375 
Q 45.5625 -1.421875 35.59375 -1.421875 
Q 29.59375 -1.421875 25.265625 0.953125 
Q 20.953125 3.328125 18.109375 8.203125 
z
M 48.6875 27.296875 
Q 48.6875 37.203125 44.609375 42.84375 
Q 40.53125 48.484375 33.40625 48.484375 
Q 26.265625 48.484375 22.1875 42.84375 
Q 18.109375 37.203125 18.109375 27.296875 
Q 18.109375 17.390625 22.1875 11.75 
Q 26.265625 6.109375 33.40625 6.109375 
Q 40.53125 6.109375 44.609375 11.75 
Q 48.6875 17.390625 48.6875 27.296875 
z
" id="DejaVuSans-112"/>
       <path d="M 30.609375 48.390625 
Q 23.390625 48.390625 19.1875 42.75 
Q 14.984375 37.109375 14.984375 27.296875 
Q 14.984375 17.484375 19.15625 11.84375 
Q 23.34375 6.203125 30.609375 6.203125 
Q 37.796875 6.203125 41.984375 11.859375 
Q 46.1875 17.53125 46.1875 27.296875 
Q 46.1875 37.015625 41.984375 42.703125 
Q 37.796875 48.390625 30.609375 48.390625 
z
M 30.609375 56 
Q 42.328125 56 49.015625 48.375 
Q 55.71875 40.765625 55.71875 27.296875 
Q 55.71875 13.875 49.015625 6.21875 
Q 42.328125 -1.421875 30.609375 -1.421875 
Q 18.84375 -1.421875 12.171875 6.21875 
Q 5.515625 13.875 5.515625 27.296875 
Q 5.515625 40.765625 12.171875 48.375 
Q 18.84375 56 30.609375 56 
z
" id="DejaVuSans-111"/>
      </defs>
      <use xlink:href="#DejaVuSans-116"/>
      <use x="39.208984" xlink:href="#DejaVuSans-105"/>
      <use x="66.992188" xlink:href="#DejaVuSans-101"/>
      <use x="128.515625" xlink:href="#DejaVuSans-109"/>
      <use x="225.927734" xlink:href="#DejaVuSans-112"/>
      <use x="289.404297" xlink:href="#DejaVuSans-111"/>
     </g>
    </g>
   </g>
   <g id="matplotlib.axis_2">
    <g id="ytick_1">
     <g id="line2d_8">
      <defs>
       <path d="M 0 0 
L -3.5 0 
" id="m508ecf0819" style="stroke:#000000;stroke-width:0.8;"/>
      </defs>
      <g>
       <use style="stroke:#000000;stroke-width:0.8;" x="40.175" xlink:href="#m508ecf0819" y="301.398604"/>
      </g>
     </g>
     <g id="text_9">
      <!-- 0.00 -->
      <g transform="translate(10.909375 305.197823)scale(0.1 -0.1)">
       <defs>
        <path d="M 10.6875 12.40625 
L 21 12.40625 
L 21 0 
L 10.6875 0 
z
" id="DejaVuSans-46"/>
       </defs>
       <use xlink:href="#DejaVuSans-48"/>
       <use x="63.623047" xlink:href="#DejaVuSans-46"/>
       <use x="95.410156" xlink:href="#DejaVuSans-48"/>
       <use x="159.033203" xlink:href="#DejaVuSans-48"/>
      </g>
     </g>
    </g>
    <g id="ytick_2">
     <g id="line2d_9">
      <g>
       <use style="stroke:#000000;stroke-width:0.8;" x="40.175" xlink:href="#m508ecf0819" y="258.768194"/>
      </g>
     </g>
     <g id="text_10">
      <!-- 0.25 -->
      <g transform="translate(10.909375 262.567413)scale(0.1 -0.1)">
       <use xlink:href="#DejaVuSans-48"/>
       <use x="63.623047" xlink:href="#DejaVuSans-46"/>
       <use x="95.410156" xlink:href="#DejaVuSans-50"/>
       <use x="159.033203" xlink:href="#DejaVuSans-53"/>
      </g>
     </g>
    </g>
    <g id="ytick_3">
     <g id="line2d_10">
      <g>
       <use style="stroke:#000000;stroke-width:0.8;" x="40.175" xlink:href="#m508ecf0819" y="216.137784"/>
      </g>
     </g>
     <g id="text_11">
      <!-- 0.50 -->
      <g transform="translate(10.909375 219.937003)scale(0.1 -0.1)">
       <use xlink:href="#DejaVuSans-48"/>
       <use x="63.623047" xlink:href="#DejaVuSans-46"/>
       <use x="95.410156" xlink:href="#DejaVuSans-53"/>
       <use x="159.033203" xlink:href="#DejaVuSans-48"/>
      </g>
     </g>
    </g>
    <g id="ytick_4">
     <g id="line2d_11">
      <g>
       <use style="stroke:#000000;stroke-width:0.8;" x="40.175" xlink:href="#m508ecf0819" y="173.507375"/>
      </g>
     </g>
     <g id="text_12">
      <!-- 0.75 -->
      <g transform="translate(10.909375 177.306593)scale(0.1 -0.1)">
       <use xlink:href="#DejaVuSans-48"/>
       <use x="63.623047" xlink:href="#DejaVuSans-46"/>
       <use x="95.410156" xlink:href="#DejaVuSans-55"/>
       <use x="159.033203" xlink:href="#DejaVuSans-53"/>
      </g>
     </g>
    </g>
    <g id="ytick_5">
     <g id="line2d_12">
      <g>
       <use style="stroke:#000000;stroke-width:0.8;" x="40.175" xlink:href="#m508ecf0819" y="130.876965"/>
      </g>
     </g>
     <g id="text_13">
      <!-- 1.00 -->
      <g transform="translate(10.909375 134.676184)scale(0.1 -0.1)">
       <use xlink:href="#DejaVuSans-49"/>
       <use x="63.623047" xlink:href="#DejaVuSans-46"/>
       <use x="95.410156" xlink:href="#DejaVuSans-48"/>
       <use x="159.033203" xlink:href="#DejaVuSans-48"/>
      </g>
     </g>
    </g>
    <g id="ytick_6">
     <g id="line2d_13">
      <g>
       <use style="stroke:#000000;stroke-width:0.8;" x="40.175" xlink:href="#m508ecf0819" y="88.246555"/>
      </g>
     </g>
     <g id="text_14">
      <!-- 1.25 -->
      <g transform="translate(10.909375 92.045774)scale(0.1 -0.1)">
       <use xlink:href="#DejaVuSans-49"/>
       <use x="63.623047" xlink:href="#DejaVuSans-46"/>
       <use x="95.410156" xlink:href="#DejaVuSans-50"/>
       <use x="159.033203" xlink:href="#DejaVuSans-53"/>
      </g>
     </g>
    </g>
    <g id="ytick_7">
     <g id="line2d_14">
      <g>
       <use style="stroke:#000000;stroke-width:0.8;" x="40.175" xlink:href="#m508ecf0819" y="45.616145"/>
      </g>
     </g>
     <g id="text_15">
      <!-- 1.50 -->
      <g transform="translate(10.909375 49.415364)scale(0.1 -0.1)">
       <use xlink:href="#DejaVuSans-49"/>
       <use x="63.623047" xlink:href="#DejaVuSans-46"/>
       <use x="95.410156" xlink:href="#DejaVuSans-53"/>
       <use x="159.033203" xlink:href="#DejaVuSans-48"/>
      </g>
     </g>
    </g>
    <g id="text_16">
     <!-- complejidad -->
     <g transform="translate(4.829688 207.509375)rotate(-90)scale(0.1 -0.1)">
      <defs>
       <path d="M 48.78125 52.59375 
L 48.78125 44.1875 
Q 44.96875 46.296875 41.140625 47.34375 
Q 37.3125 48.390625 33.40625 48.390625 
Q 24.65625 48.390625 19.8125 42.84375 
Q 14.984375 37.3125 14.984375 27.296875 
Q 14.984375 17.28125 19.8125 11.734375 
Q 24.65625 6.203125 33.40625 6.203125 
Q 37.3125 6.203125 41.140625 7.25 
Q 44.96875 8.296875 48.78125 10.40625 
L 48.78125 2.09375 
Q 45.015625 0.34375 40.984375 -0.53125 
Q 36.96875 -1.421875 32.421875 -1.421875 
Q 20.0625 -1.421875 12.78125 6.34375 
Q 5.515625 14.109375 5.515625 27.296875 
Q 5.515625 40.671875 12.859375 48.328125 
Q 20.21875 56 33.015625 56 
Q 37.15625 56 41.109375 55.140625 
Q 45.0625 54.296875 48.78125 52.59375 
z
" id="DejaVuSans-99"/>
       <path d="M 9.421875 75.984375 
L 18.40625 75.984375 
L 18.40625 0 
L 9.421875 0 
z
" id="DejaVuSans-108"/>
       <path d="M 9.421875 54.6875 
L 18.40625 54.6875 
L 18.40625 -0.984375 
Q 18.40625 -11.421875 14.421875 -16.109375 
Q 10.453125 -20.796875 1.609375 -20.796875 
L -1.8125 -20.796875 
L -1.8125 -13.1875 
L 0.59375 -13.1875 
Q 5.71875 -13.1875 7.5625 -10.8125 
Q 9.421875 -8.453125 9.421875 -0.984375 
z
M 9.421875 75.984375 
L 18.40625 75.984375 
L 18.40625 64.59375 
L 9.421875 64.59375 
z
" id="DejaVuSans-106"/>
       <path d="M 45.40625 46.390625 
L 45.40625 75.984375 
L 54.390625 75.984375 
L 54.390625 0 
L 45.40625 0 
L 45.40625 8.203125 
Q 42.578125 3.328125 38.25 0.953125 
Q 33.9375 -1.421875 27.875 -1.421875 
Q 17.96875 -1.421875 11.734375 6.484375 
Q 5.515625 14.40625 5.515625 27.296875 
Q 5.515625 40.1875 11.734375 48.09375 
Q 17.96875 56 27.875 56 
Q 33.9375 56 38.25 53.625 
Q 42.578125 51.265625 45.40625 46.390625 
z
M 14.796875 27.296875 
Q 14.796875 17.390625 18.875 11.75 
Q 22.953125 6.109375 30.078125 6.109375 
Q 37.203125 6.109375 41.296875 11.75 
Q 45.40625 17.390625 45.40625 27.296875 
Q 45.40625 37.203125 41.296875 42.84375 
Q 37.203125 48.484375 30.078125 48.484375 
Q 22.953125 48.484375 18.875 42.84375 
Q 14.796875 37.203125 14.796875 27.296875 
z
" id="DejaVuSans-100"/>
       <path d="M 34.28125 27.484375 
Q 23.390625 27.484375 19.1875 25 
Q 14.984375 22.515625 14.984375 16.5 
Q 14.984375 11.71875 18.140625 8.90625 
Q 21.296875 6.109375 26.703125 6.109375 
Q 34.1875 6.109375 38.703125 11.40625 
Q 43.21875 16.703125 43.21875 25.484375 
L 43.21875 27.484375 
z
M 52.203125 31.203125 
L 52.203125 0 
L 43.21875 0 
L 43.21875 8.296875 
Q 40.140625 3.328125 35.546875 0.953125 
Q 30.953125 -1.421875 24.3125 -1.421875 
Q 15.921875 -1.421875 10.953125 3.296875 
Q 6 8.015625 6 15.921875 
Q 6 25.140625 12.171875 29.828125 
Q 18.359375 34.515625 30.609375 34.515625 
L 43.21875 34.515625 
L 43.21875 35.40625 
Q 43.21875 41.609375 39.140625 45 
Q 35.0625 48.390625 27.6875 48.390625 
Q 23 48.390625 18.546875 47.265625 
Q 14.109375 46.140625 10.015625 43.890625 
L 10.015625 52.203125 
Q 14.9375 54.109375 19.578125 55.046875 
Q 24.21875 56 28.609375 56 
Q 40.484375 56 46.34375 49.84375 
Q 52.203125 43.703125 52.203125 31.203125 
z
" id="DejaVuSans-97"/>
      </defs>
      <use xlink:href="#DejaVuSans-99"/>
      <use x="54.980469" xlink:href="#DejaVuSans-111"/>
      <use x="116.162109" xlink:href="#DejaVuSans-109"/>
      <use x="213.574219" xlink:href="#DejaVuSans-112"/>
      <use x="277.050781" xlink:href="#DejaVuSans-108"/>
      <use x="304.833984" xlink:href="#DejaVuSans-101"/>
      <use x="366.357422" xlink:href="#DejaVuSans-106"/>
      <use x="394.140625" xlink:href="#DejaVuSans-105"/>
      <use x="421.923828" xlink:href="#DejaVuSans-100"/>
      <use x="485.400391" xlink:href="#DejaVuSans-97"/>
      <use x="546.679688" xlink:href="#DejaVuSans-100"/>
     </g>
    </g>
    <g id="text_17">
     <!-- 1e10 -->
     <g transform="translate(40.175 18.8)scale(0.1 -0.1)">
      <use xlink:href="#DejaVuSans-49"/>
      <use x="63.623047" xlink:href="#DejaVuSans-101"/>
      <use x="125.146484" xlink:href="#DejaVuSans-49"/>
      <use x="188.769531" xlink:href="#DejaVuSans-48"/>
     </g>
    </g>
   </g>
   <g id="line2d_15">
    <path clip-path="url(#pb60c02726e)" d="M 40.175 313.48574 
L 43.296465 311.099845 
L 46.417929 308.71395 
L 49.539394 306.328055 
L 52.660859 303.942159 
L 55.782323 301.556264 
L 58.903788 299.170369 
L 62.025253 296.784474 
L 65.146717 294.398579 
L 68.268182 292.012684 
L 71.389646 289.626789 
L 74.511111 287.240894 
L 77.632576 284.854999 
L 80.75404 282.469104 
L 83.875505 280.083209 
L 86.99697 277.697313 
L 90.118434 275.311418 
L 93.239899 272.925523 
L 96.361364 270.539628 
L 99.482828 268.153733 
L 102.604293 265.767838 
L 105.725758 263.381943 
L 108.847222 260.996048 
L 111.968687 258.610153 
L 115.090152 256.224258 
L 118.211616 253.838363 
L 121.333081 251.452467 
L 124.454545 249.066572 
L 127.57601 246.680677 
L 130.697475 244.294782 
L 133.818939 241.908887 
L 136.940404 239.522992 
L 140.061869 237.137097 
L 143.183333 234.751202 
L 146.304798 232.365307 
L 149.426263 229.979412 
L 152.547727 227.593517 
L 155.669192 225.207621 
L 158.790657 222.821726 
L 161.912121 220.435831 
L 165.033586 218.049936 
L 168.155051 215.664041 
L 171.276515 213.278146 
L 174.39798 210.892251 
L 177.519444 208.506356 
L 180.640909 206.120461 
L 183.762374 203.734566 
L 186.883838 201.348671 
L 190.005303 198.962775 
L 193.126768 196.57688 
L 196.248232 194.190985 
L 199.369697 191.80509 
L 202.491162 189.419195 
L 205.612626 187.0333 
L 208.734091 184.647405 
L 211.855556 182.26151 
L 214.97702 179.875615 
L 218.098485 177.48972 
L 221.219949 175.103825 
L 224.341414 172.717929 
L 227.462879 170.332034 
L 230.584343 167.946139 
L 233.705808 165.560244 
L 236.827273 163.174349 
L 239.948737 160.788454 
L 243.070202 158.402559 
L 246.191667 156.016664 
L 249.313131 153.630769 
L 252.434596 151.244874 
L 255.556061 148.858979 
L 258.677525 146.473083 
L 261.79899 144.087188 
L 264.920455 141.701293 
L 268.041919 139.315398 
L 271.163384 136.929503 
L 274.284848 134.543608 
L 277.406313 132.157713 
L 280.527778 129.771818 
L 283.649242 127.385923 
L 286.770707 125.000028 
L 289.892172 122.614133 
L 293.013636 120.228238 
L 296.135101 117.842342 
L 299.256566 115.456447 
L 302.37803 113.070552 
L 305.499495 110.684657 
L 308.62096 108.298762 
L 311.742424 105.912867 
L 314.863889 103.526972 
L 317.985354 101.141077 
L 321.106818 98.755182 
L 324.228283 96.369287 
L 327.349747 93.983392 
L 330.471212 91.597496 
L 333.592677 89.211601 
L 336.714141 86.825706 
L 339.835606 84.439811 
L 342.957071 82.053916 
L 346.078535 79.668021 
L 349.2 77.282126 
" style="fill:none;stroke:#1f77b4;stroke-linecap:square;stroke-width:2.25;"/>
   </g>
   <g id="patch_3">
    <path d="M 40.175 332.2 
L 40.175 21.8 
" style="fill:none;stroke:#000000;stroke-linecap:square;stroke-linejoin:miter;stroke-width:0.8;"/>
   </g>
   <g id="patch_4">
    <path d="M 40.175 332.2 
L 349.2 332.2 
" style="fill:none;stroke:#000000;stroke-linecap:square;stroke-linejoin:miter;stroke-width:0.8;"/>
   </g>
  </g>
 </g>
 <defs>
  <clipPath id="pb60c02726e">
   <rect height="310.4" width="309.025" x="40.175" y="21.8"/>
  </clipPath>
 </defs>
</svg>
